<svg xmlns="http://www.w3.org/2000/svg" width="163" height="17" viewBox="0 0 163 17">
    <path fill="gray" fill-rule="evenodd" d="M2.056 8.86V4.237c0-.597-.041-.977-.123-1.138-.082-.161-.305-.291-.668-.391-.528-.152-.791-.416-.791-.791 0-.264.111-.466.334-.606.222-.141.545-.211.966-.211.141 0 .49.008 1.046.026h.528a64.165 64.165 0 0 0 1.71-.022c.166-.009.762-.06 1.788-.154.34-.035.65-.053.931-.053.961 0 1.817.197 2.567.59 1.306.679 1.96 1.757 1.96 3.234 0 1.195-.457 2.153-1.371 2.874-.862.674-1.905 1.01-3.13 1.01-.31 0-.69-.02-1.142-.061a8.86 8.86 0 0 0-.448-.026c-.17 0-.255.096-.255.29v.052l.062 1.442c.011.281.063.49.153.628.091.138.277.28.558.426.381.206.572.428.572.668 0 .37-.282.654-.844.853-.563.2-1.36.299-2.39.299-2.169 0-3.253-.372-3.253-1.116 0-.176.047-.311.141-.405.094-.093.314-.228.66-.404.21-.111.333-.267.368-.466.036-.2.059-.84.07-1.925zM6.02 3.121V6.11c0 .229.05.367.149.413.17.082.384.124.642.124.386 0 .711-.109.975-.326.381-.31.571-.832.571-1.564 0-.762-.222-1.313-.668-1.652-.28-.217-.62-.326-1.02-.326-.433 0-.65.115-.65.343zM24.099.757c.855 0 1.681.187 2.478.562.375.176.636.264.782.264.106 0 .276-.026.51-.08.076-.017.161-.025.255-.025.305 0 .571.14.8.421.562.68.844 1.524.844 2.532 0 .709-.244 1.227-.73 1.555-.264.176-.56.264-.888.264-.298 0-.542-.064-.73-.193-.187-.13-.368-.358-.544-.686-.252-.463-.457-.795-.615-.997a2.812 2.812 0 0 0-.58-.55c-.569-.398-1.163-.597-1.785-.597-.603 0-1.082.218-1.437.654-.354.437-.531 1.021-.531 1.754 0 1.008.255 1.93.764 2.768.692 1.12 1.682 1.679 2.971 1.679.475 0 .945-.08 1.41-.237.467-.158.828-.364 1.086-.616.223-.21.404-.316.545-.316.205 0 .381.095.527.286.147.19.22.42.22.69 0 .34-.102.72-.307 1.142-.206.422-.452.753-.739.993-.123.1-.378.188-.764.264-.223.041-.519.15-.888.325a6.186 6.186 0 0 1-2.707.624c-.979 0-1.954-.22-2.927-.659a5.99 5.99 0 0 1-2.68-2.347c-.645-1.025-.967-2.097-.967-3.216 0-1.301.404-2.488 1.213-3.56.703-.932 1.62-1.643 2.75-2.136A6.607 6.607 0 0 1 24.1.757zm11.258 3.48c1.02 0 1.884.258 2.593.774.375.275.637.59.787.945.15.354.224.842.224 1.463l-.018 1.31c0 .908.065 1.497.194 1.766.064.129.126.211.184.246.059.035.182.068.37.097.187.03.28.152.28.369 0 .281-.112.574-.338.879a2.81 2.81 0 0 1-.874.765c-.44.257-.9.386-1.38.386-.615 0-1.102-.21-1.46-.633-.122-.152-.236-.228-.342-.228-.117 0-.272.073-.466.22a3.298 3.298 0 0 1-1.995.641c-.767 0-1.388-.164-1.863-.492-.31-.217-.557-.5-.738-.848a2.337 2.337 0 0 1-.273-1.094c0-.61.246-1.149.738-1.617.768-.739 1.916-1.11 3.446-1.117.34 0 .553-.033.641-.1.088-.068.132-.225.132-.471 0-.621-.064-1.07-.193-1.35-.129-.277-.34-.417-.633-.417a.753.753 0 0 0-.47.159c-.138.105-.31.298-.514.58-.522.744-1.067 1.116-1.635 1.116-.287 0-.522-.085-.703-.255a.872.872 0 0 1-.273-.668c0-.281.113-.562.339-.844.225-.28.531-.527.918-.738a6.998 6.998 0 0 1 3.322-.844zm-.588 5.09a.879.879 0 0 0-.673.316 1.09 1.09 0 0 0-.285.755c0 .282.067.509.202.682.134.172.313.259.536.259.469 0 .703-.396.703-1.187 0-.322-.034-.539-.101-.65-.068-.111-.195-.17-.382-.176zm10.08-5.037c.358 0 .58.03.669.092.087.062.131.216.131.462 0 .217.07.325.211.325.059 0 .255-.111.59-.334.251-.17.572-.312.962-.426a3.8 3.8 0 0 1 1.059-.172c.744 0 1.409.258 1.995.774.445.392.79.887 1.037 1.485a5.15 5.15 0 0 1 .387 1.978c0 1.476-.498 2.692-1.494 3.647-.768.744-1.641 1.116-2.62 1.116-.498 0-1.01-.117-1.538-.351a.672.672 0 0 0-.255-.07c-.175 0-.263.175-.263.527 0 .463.155.797.466 1.002.287.193.458.323.514.39.055.068.083.181.083.34 0 .35-.196.622-.589.812-.392.19-.946.286-1.66.286-1.272 0-2.386-.255-3.34-.765-.487-.258-.73-.577-.73-.958 0-.176.036-.309.11-.4.073-.09.215-.186.426-.285.305-.141.49-.396.558-.765.067-.37.119-1.43.154-3.182-.041-1.441-.094-2.25-.158-2.425-.024-.059-.057-.097-.101-.115a3.835 3.835 0 0 0-.435-.096.766.766 0 0 1-.457-.26.74.74 0 0 1-.176-.496c0-.235.082-.441.246-.62.164-.179.43-.353.8-.523 1.435-.65 2.575-.981 3.419-.993zm.87 3.322l-.131 2.417c-.006.1-.009.197-.009.29 0 .182.08.328.237.44.159.111.37.167.633.167.809 0 1.213-.665 1.213-1.995 0-.862-.17-1.468-.51-1.82a1.018 1.018 0 0 0-.756-.325c-.416 0-.641.276-.676.826zm11.69-2.76V9.96c0 .404.037.7.11.888.073.187.221.36.444.518.182.13.303.239.365.33.061.09.092.206.092.347 0 .756-.958 1.134-2.874 1.134-1.031 0-1.849-.082-2.452-.246a.999.999 0 0 1-.497-.308.747.747 0 0 1-.189-.5c0-.16.032-.282.097-.37.064-.088.228-.229.492-.422.182-.135.31-.354.387-.66.076-.304.114-.758.114-1.361 0-.194-.013-.556-.04-1.086-.026-.53-.045-.84-.057-.927-.035-.24-.199-.425-.492-.554-.363-.158-.545-.392-.545-.703 0-.37.238-.644.712-.826.656-.252 1.36-.466 2.11-.642.75-.175 1.33-.263 1.74-.263.322 0 .483.181.483.545zm-1.74-3.85c.51 0 .914.096 1.213.287.299.19.448.446.448.769 0 .45-.226.808-.677 1.072-.715.416-1.579.624-2.592.624-.428 0-.768-.082-1.02-.246-.34-.211-.51-.504-.51-.88 0-.503.36-.899 1.081-1.186.733-.293 1.418-.44 2.057-.44zm8.49 5.547v2.97c0 .352.087.64.26.862a.804.804 0 0 0 .663.334c.229 0 .53-.106.905-.317a.509.509 0 0 1 .264-.079c.14 0 .27.085.387.255.117.17.175.355.175.554 0 .363-.199.712-.597 1.046-.832.709-1.84 1.063-3.024 1.063-.937 0-1.69-.265-2.258-.795-.569-.53-.853-1.23-.853-2.096v-4.06c0-.136-.016-.22-.048-.251-.033-.033-.116-.049-.25-.049h-.906c-.17 0-.278-.028-.325-.083-.047-.056-.07-.186-.07-.391v-.387c.005-.176.073-.305.202-.387l4.025-2.531c.1-.053.223-.08.37-.08h.711c.147 0 .245.035.294.102.05.067.075.2.075.4v1.186c0 .176.028.29.084.343.055.053.174.08.356.08h1.626c.216 0 .357.039.421.118.065.08.097.248.097.505v.519c0 .281-.04.476-.123.584-.082.109-.231.163-.448.163h-1.59c-.165 0-.276.03-.335.088-.059.058-.088.17-.088.334zm8.227-2.312c1.02 0 1.884.258 2.593.774.375.275.637.59.786.945.15.354.224.842.224 1.463l-.017 1.31c0 .908.064 1.497.193 1.766.064.129.126.211.185.246.058.035.181.068.369.097.187.03.281.152.281.369 0 .281-.113.574-.338.879a2.81 2.81 0 0 1-.875.765c-.44.257-.9.386-1.38.386-.615 0-1.101-.21-1.459-.633-.123-.152-.237-.228-.343-.228-.117 0-.272.073-.465.22a3.298 3.298 0 0 1-1.995.641c-.768 0-1.39-.164-1.864-.492-.31-.217-.556-.5-.738-.848a2.337 2.337 0 0 1-.272-1.094c0-.61.246-1.149.738-1.617.767-.739 1.916-1.11 3.445-1.117.34 0 .554-.033.642-.1.088-.068.132-.225.132-.471 0-.621-.065-1.07-.194-1.35-.129-.277-.34-.417-.633-.417a.753.753 0 0 0-.47.159c-.138.105-.309.298-.514.58-.521.744-1.066 1.116-1.635 1.116-.287 0-.521-.085-.703-.255a.872.872 0 0 1-.272-.668c0-.281.112-.562.338-.844.226-.28.532-.527.918-.738a6.998 6.998 0 0 1 3.323-.844zm-.59 5.09a.879.879 0 0 0-.671.316 1.09 1.09 0 0 0-.286.755c0 .282.067.509.202.682.135.172.313.259.536.259.469 0 .703-.396.703-1.187 0-.322-.033-.539-.1-.65-.068-.111-.196-.17-.383-.176zM82.59 6.03v2.822c0 1.248.019 1.974.057 2.18.038.204.183.363.435.474.217.094.362.181.435.264.073.082.11.199.11.351 0 .193-.069.37-.207.527-.137.159-.32.27-.549.334-.422.13-1.134.194-2.136.194-1.13 0-1.924-.085-2.381-.255a1.186 1.186 0 0 1-.519-.356.779.779 0 0 1-.202-.505c0-.141.036-.25.11-.326.073-.076.233-.167.479-.272.228-.1.369-.372.422-.817.093-.762.14-1.846.14-3.252 0-1.43-.04-2.35-.123-2.76-.082-.41-.287-.715-.615-.914-.246-.14-.415-.274-.505-.4a.768.768 0 0 1-.137-.462c0-.287.138-.537.413-.751.276-.214.715-.412 1.319-.593.404-.123.928-.24 1.573-.352.645-.111 1.113-.167 1.406-.167.463 0 .695.287.695.861 0 .188-.03.619-.088 1.292a49.162 49.162 0 0 0-.132 2.883zm14.774 3.331l-1.054 2.365c-.182.398-.329.666-.44.804-.111.137-.234.206-.369.206a.45.45 0 0 1-.343-.167c-.064-.07-.212-.328-.444-.773-.231-.445-.423-.84-.575-1.187L92.979 8c-.159-.363-.326-.545-.501-.545-.188 0-.29.155-.308.466a32.52 32.52 0 0 0-.062 1.916c0 .61.03 1.022.088 1.24a.61.61 0 0 0 .163.28c.067.059.25.165.55.317.193.1.29.272.29.518 0 .657-.842.985-2.523.985-1.418 0-2.127-.32-2.127-.958 0-.164.036-.283.11-.356.073-.073.262-.183.567-.33.193-.088.323-.208.39-.36.068-.152.125-.448.172-.888.053-.469.103-1.238.15-2.307.046-1.07.07-1.985.07-2.747 0-.955-.073-1.602-.22-1.942a.755.755 0 0 0-.18-.264 2.022 2.022 0 0 0-.382-.228c-.416-.2-.624-.457-.624-.774 0-.205.077-.392.232-.562.156-.17.362-.29.62-.36a6.912 6.912 0 0 1 1.033-.198A8.76 8.76 0 0 1 91.58.818c.75 0 1.28.062 1.59.185a.9.9 0 0 1 .361.237c.088.1.214.305.378.615l1.828 3.367c.2.369.337.594.413.676a.41.41 0 0 0 .317.123.436.436 0 0 0 .312-.131c.09-.088.198-.252.32-.493l1.24-2.417.299-.606c.287-.586.571-.976.852-1.169.358-.252 1.008-.378 1.951-.378 1.659 0 2.488.378 2.488 1.134a.76.76 0 0 1-.097.409c-.064.102-.196.227-.395.373-.27.205-.44.501-.51.888-.135.808-.202 1.793-.202 2.953 0 1.494.07 2.804.21 3.929.036.275.09.463.163.562.073.1.262.25.567.448.211.141.316.329.316.563 0 .41-.272.7-.817.87a3.979 3.979 0 0 1-.888.185c-.31.029-.788.044-1.432.044-.99 0-1.729-.07-2.215-.211-.54-.159-.809-.428-.809-.809a.55.55 0 0 1 .106-.347c.07-.091.252-.256.545-.497.152-.123.256-.36.312-.712.055-.351.083-.949.083-1.793 0-.468-.022-.776-.066-.922-.044-.147-.136-.22-.277-.22-.164 0-.322.113-.474.338-.153.226-.381.675-.686 1.35zm12.208-5.124c1.02 0 1.884.258 2.593.774.375.275.637.59.787.945.15.354.224.842.224 1.463l-.018 1.31c0 .908.065 1.497.194 1.766.064.129.126.211.184.246.059.035.182.068.37.097.187.03.28.152.28.369 0 .281-.112.574-.338.879a2.81 2.81 0 0 1-.874.765c-.44.257-.9.386-1.38.386-.615 0-1.102-.21-1.46-.633-.122-.152-.237-.228-.342-.228-.117 0-.272.073-.466.22a3.298 3.298 0 0 1-1.995.641c-.768 0-1.389-.164-1.863-.492-.31-.217-.557-.5-.739-.848a2.337 2.337 0 0 1-.272-1.094c0-.61.246-1.149.738-1.617.768-.739 1.916-1.11 3.446-1.117.34 0 .553-.033.641-.1.088-.068.132-.225.132-.471 0-.621-.064-1.07-.193-1.35-.13-.277-.34-.417-.633-.417a.753.753 0 0 0-.47.159c-.138.105-.31.298-.514.58-.522.744-1.067 1.116-1.635 1.116-.287 0-.522-.085-.703-.255a.872.872 0 0 1-.273-.668c0-.281.113-.562.339-.844.225-.28.531-.527.918-.738a6.998 6.998 0 0 1 3.322-.844zm-.589 5.09a.879.879 0 0 0-.672.316 1.09 1.09 0 0 0-.286.755c0 .282.068.509.203.682.134.172.313.259.536.259.468 0 .703-.396.703-1.187 0-.322-.034-.539-.101-.65-.068-.111-.195-.17-.383-.176zm9.88-5.028c.31 0 .499.044.566.132.068.088.128.369.18.843.03.258.12.387.273.387.117 0 .228-.085.334-.255.469-.732 1.08-1.098 1.837-1.098.533 0 .97.172 1.31.518.163.17.298.388.404.655.105.267.158.523.158.769 0 .275-.065.558-.194.848-.128.29-.295.529-.5.716-.376.358-.835.537-1.38.537-.3 0-.55-.053-.752-.159-.202-.105-.467-.319-.795-.641-.123-.123-.238-.185-.343-.185-.164 0-.271.092-.32.277-.05.185-.076.573-.076 1.165 0 .884.033 1.488.097 1.81.041.176.098.298.171.365.074.067.23.136.47.206.528.159.792.434.792.827 0 .24-.085.45-.255.628a1.26 1.26 0 0 1-.677.356c-.562.117-1.389.176-2.478.176-1.038 0-1.826-.091-2.365-.273-.48-.164-.72-.448-.72-.852 0-.305.175-.577.527-.818.17-.11.287-.212.352-.303a.86.86 0 0 0 .131-.373c.094-.534.141-1.52.141-2.962 0-.264-.03-.453-.088-.567-.059-.114-.176-.207-.351-.277-.416-.164-.624-.401-.624-.712 0-.281.143-.523.43-.725.287-.202.768-.403 1.442-.602.902-.27 1.67-.407 2.302-.413zm10.09-2.865l-.08 2.75c-.006.276-.009.68-.009 1.213 0 .592.009.94.027 1.046.04.24.164.36.369.36.176 0 .445-.112.808-.338.364-.225.545-.394.545-.505 0-.064-.064-.182-.193-.352a.589.589 0 0 1-.14-.351c0-.633.779-.95 2.337-.95.809 0 1.447.083 1.916.247a.984.984 0 0 1 .466.334.815.815 0 0 1 .185.51c0 .263-.126.448-.378.553-.053.024-.223.062-.51.114-.258.047-.592.207-1.002.48-.41.272-.615.47-.615.593 0 .082.247.467.742 1.155a30.72 30.72 0 0 0 1.385 1.798c.275.334.49.568.646.703.155.135.37.278.646.43.422.23.632.49.632.783 0 .31-.133.554-.4.73-.266.175-.63.263-1.094.263h-2.847c-.358-.006-.636-.138-.835-.396l-1.46-1.872a25.531 25.531 0 0 0-.707-.878c-.085-.094-.157-.141-.215-.141-.07 0-.117.053-.14.158-.024.106-.036.305-.036.598 0 .263.03.455.088.575.059.12.193.266.404.435.153.124.229.305.229.545 0 .41-.217.706-.65.888-.434.182-1.149.273-2.145.273-1.172 0-1.934-.05-2.285-.15a1 1 0 0 1-.51-.356.903.903 0 0 1-.211-.567c0-.222.123-.416.37-.58.21-.135.345-.237.403-.307a.814.814 0 0 0 .141-.334c.135-.82.2-2.086.193-3.797V5.169c0-.656-.033-1.075-.1-1.257-.068-.182-.234-.29-.497-.325-.48-.065-.72-.264-.72-.598 0-.222.105-.423.315-.602.211-.179.557-.356 1.038-.532 1.535-.568 2.671-.852 3.41-.852.334 0 .495.143.483.43zm15.925 7.628h-4.13c-.183 0-.273.08-.273.238 0 .38.206.74.62 1.076.412.337.856.506 1.33.506.282 0 .594-.054.937-.163.343-.108.625-.241.848-.4.2-.14.357-.21.475-.21.152 0 .301.093.448.28.146.188.22.382.22.58 0 .423-.264.83-.791 1.222-.932.698-2.007 1.046-3.226 1.046-1.23 0-2.262-.357-3.094-1.072a4.393 4.393 0 0 1-1.002-1.274 4.458 4.458 0 0 1-.518-2.092c0-.985.299-1.87.896-2.654a4.713 4.713 0 0 1 1.969-1.521 4.949 4.949 0 0 1 1.942-.378c1.114 0 2.06.316 2.84.95.392.316.708.69.948 1.124.276.492.413.973.413 1.442 0 .38-.079.693-.237.936-.158.243-.363.364-.615.364zm-3.902-1.643h.887c.375 0 .563-.173.563-.519 0-.316-.091-.574-.273-.773a.918.918 0 0 0-.712-.299.904.904 0 0 0-.773.387c-.176.24-.264.483-.264.73 0 .175.043.298.128.368s.233.106.444.106zm10.432-.87v2.97c0 .352.087.64.26.862a.804.804 0 0 0 .663.334c.229 0 .53-.106.905-.317a.509.509 0 0 1 .264-.079c.14 0 .27.085.387.255.117.17.175.355.175.554 0 .363-.199.712-.597 1.046-.832.709-1.84 1.063-3.024 1.063-.937 0-1.69-.265-2.258-.795-.569-.53-.853-1.23-.853-2.096v-4.06c0-.136-.016-.22-.048-.251-.032-.033-.116-.049-.25-.049h-.906c-.17 0-.278-.028-.325-.083-.047-.056-.07-.186-.07-.391v-.387c.005-.176.073-.305.202-.387l4.025-2.531c.1-.053.223-.08.37-.08h.711c.147 0 .245.035.294.102.05.067.075.2.075.4v1.186c0 .176.028.29.084.343.055.053.174.08.356.08h1.626c.216 0 .357.039.422.118.064.08.096.248.096.505v.519c0 .281-.04.476-.123.584-.082.109-.231.163-.448.163h-1.59c-.165 0-.276.03-.335.088-.059.058-.088.17-.088.334zm6.627-2.303c.293 0 .77.065 1.433.193.135.024.246.036.334.036.1 0 .293-.053.58-.159a.974.974 0 0 1 .343-.079c.27 0 .542.173.817.519.223.275.404.577.545.905.14.328.21.612.21.853 0 .234-.081.429-.245.584a.86.86 0 0 1-.615.233c-.206 0-.389-.05-.55-.15-.16-.099-.42-.319-.778-.659-.375-.363-.685-.544-.931-.544a.583.583 0 0 0-.427.18.583.583 0 0 0-.18.426c0 .287.276.557.826.809.99.445 1.75.931 2.277 1.459.445.445.668.99.668 1.634 0 .815-.358 1.494-1.072 2.04-.616.474-1.369.711-2.26.711-.228 0-.644-.038-1.247-.114a18.536 18.536 0 0 0-.958-.097 1.54 1.54 0 0 0-.264.027c-.17.023-.293.035-.37.035-.275 0-.491-.07-.65-.211-.24-.217-.462-.558-.667-1.024-.206-.466-.308-.866-.308-1.2 0-.539.21-.808.633-.808.164 0 .315.054.452.162.138.109.427.397.866.866.24.258.44.435.598.532a.96.96 0 0 0 .51.145.682.682 0 0 0 .465-.154.516.516 0 0 0 .176-.409c0-.263-.225-.504-.677-.72-.943-.463-1.624-.94-2.043-1.433a2.553 2.553 0 0 1-.629-1.705c0-.697.214-1.298.642-1.802.61-.72 1.441-1.08 2.496-1.08z"/>
</svg>
